<svg xmlns="http://www.w3.org/2000/svg" version="1.1" xmlns:xlink="http://www.w3.org/1999/xlink" xmlns:svgjs="http://svgjs.com/svgjs" width="1440" height="560" preserveAspectRatio="none" viewBox="0 0 1440 560"><g mask="url(&quot;#SvgjsMask1003&quot;)" fill="none"><rect width="1440" height="560" x="0" y="0" fill="rgba(247, 248, 249, 1)"></rect><path d="M 0,234 C 57.6,208 172.8,99.4 288,104 C 403.2,108.6 460.8,269.2 576,257 C 691.2,244.8 748.8,41 864,43 C 979.2,45 1036.8,266.2 1152,267 C 1267.2,267.8 1382.4,91 1440,47L1440 560L0 560z" fill="rgba(255, 255, 255, 1)"></path><path d="M 0,280 C 96,334.8 288,536 480,554 C 672,572 768,380.8 960,370 C 1152,359.2 1344,474 1440,500L1440 560L0 560z" fill="rgba(191, 30, 46, 1)"></path></g><defs><mask id="SvgjsMask1003"><rect width="1440" height="560" fill="#ffffff"></rect></mask></defs></svg>