<svg xmlns="http://www.w3.org/2000/svg" viewBox="0 0 1440 320"><path fill="#BF1E2E" fill-opacity="1" d="M0,64L0,128L49.7,128L49.7,192L99.3,192L99.3,256L149,256L149,256L198.6,256L198.6,32L248.3,32L248.3,64L297.9,64L297.9,96L347.6,96L347.6,160L397.2,160L397.2,192L446.9,192L446.9,96L496.6,96L496.6,96L546.2,96L546.2,256L595.9,256L595.9,256L645.5,256L645.5,128L695.2,128L695.2,160L744.8,160L744.8,32L794.5,32L794.5,0L844.1,0L844.1,256L893.8,256L893.8,96L943.4,96L943.4,256L993.1,256L993.1,224L1042.8,224L1042.8,160L1092.4,160L1092.4,288L1142.1,288L1142.1,128L1191.7,128L1191.7,288L1241.4,288L1241.4,192L1291,192L1291,256L1340.7,256L1340.7,288L1390.3,288L1390.3,320L1440,320L1440,0L1390.3,0L1390.3,0L1340.7,0L1340.7,0L1291,0L1291,0L1241.4,0L1241.4,0L1191.7,0L1191.7,0L1142.1,0L1142.1,0L1092.4,0L1092.4,0L1042.8,0L1042.8,0L993.1,0L993.1,0L943.4,0L943.4,0L893.8,0L893.8,0L844.1,0L844.1,0L794.5,0L794.5,0L744.8,0L744.8,0L695.2,0L695.2,0L645.5,0L645.5,0L595.9,0L595.9,0L546.2,0L546.2,0L496.6,0L496.6,0L446.9,0L446.9,0L397.2,0L397.2,0L347.6,0L347.6,0L297.9,0L297.9,0L248.3,0L248.3,0L198.6,0L198.6,0L149,0L149,0L99.3,0L99.3,0L49.7,0L49.7,0L0,0L0,0Z"></path></svg>